<svg width="527" height="533" viewBox="0 0 527 533" fill="none" xmlns="http://www.w3.org/2000/svg">
<path d="M23 249.5C22.063 178.599 -22.9999 121 16 67.9997C54.9999 14.9997 123.569 68.2576 190 53.4997C258.966 38.1786 306.375 -1.2843 377 0.499974C454.523 2.45851 472.474 4.16155 516.5 67.9997C546.5 111.5 499.5 185 513 267C528.336 360.155 512 453.5 499.5 472.5C461.769 529.851 415.961 525.931 347.5 531C244.052 538.661 169 519.5 136 512C81.0701 499.516 17.4486 467.702 3.99998 413C-11.6169 349.479 23.8644 314.907 23 249.5Z" fill="white"/>
</svg>
