<svg width="130" height="61" viewBox="0 0 130 61" fill="none" xmlns="http://www.w3.org/2000/svg">
<g clip-path="url(#clip0)">
<path d="M4.107 53.93C4.107 53.2887 4.218 52.6843 4.44 52.117C4.68667 51.5497 5.00733 51.0563 5.402 50.637C5.82133 50.2177 6.31467 49.8847 6.882 49.638C7.44933 49.3913 8.05367 49.268 8.695 49.268C9.33633 49.268 9.94067 49.3913 10.508 49.638C11.0753 49.8847 11.5687 50.2177 11.988 50.637C12.4073 51.0563 12.7403 51.5497 12.987 52.117C13.2337 52.6843 13.357 53.2887 13.357 53.93C13.357 54.596 13.2337 55.2127 12.987 55.78C12.7403 56.3227 12.4073 56.8037 11.988 57.223C11.5687 57.6423 11.0753 57.963 10.508 58.185C9.94067 58.4317 9.33633 58.555 8.695 58.555C8.05367 58.555 7.44933 58.4317 6.882 58.185C6.31467 57.963 5.82133 57.6423 5.402 57.223C5.00733 56.8037 4.68667 56.3227 4.44 55.78C4.218 55.2127 4.107 54.596 4.107 53.93ZM25.1473 58V26.143L21.0033 25.662C20.4853 25.5387 20.0536 25.3537 19.7083 25.107C19.3876 24.8357 19.2273 24.4533 19.2273 23.96V21.259H25.1473V17.633C25.1473 15.487 25.4433 13.5877 26.0353 11.935C26.6519 10.2577 27.5153 8.85166 28.6253 7.717C29.7599 6.55767 31.1166 5.682 32.6953 5.09C34.2739 4.498 36.0499 4.202 38.0233 4.202C39.7006 4.202 41.2423 4.44866 42.6483 4.942L42.5003 8.235C42.4509 8.827 42.1179 9.14766 41.5013 9.197C40.9093 9.24633 40.1076 9.271 39.0963 9.271C37.9616 9.271 36.9256 9.419 35.9883 9.715C35.0756 10.011 34.2863 10.492 33.6203 11.158C32.9543 11.824 32.4363 12.6997 32.0663 13.785C31.7209 14.8703 31.5483 16.2147 31.5483 17.818V21.259H42.3523V26.032H31.7703V58H25.1473Z" fill="#81D742"/>
<path d="M64.7716 54.84L64.7516 58H47.0916V29.34H64.7516V32.5H50.9716V42.02H62.1316V45.06H50.9716V54.84H64.7716ZM93.4776 29.34L81.7976 58H78.3176L66.6376 29.34H69.7376C70.0842 29.34 70.3642 29.4267 70.5776 29.6C70.7909 29.7733 70.9509 29.9933 71.0576 30.26L79.1376 50.48C79.3109 50.9333 79.4776 51.4267 79.6376 51.96C79.8109 52.4933 79.9642 53.0533 80.0976 53.64C80.2309 53.0533 80.3709 52.4933 80.5176 51.96C80.6642 51.4267 80.8242 50.9333 80.9976 50.48L89.0576 30.26C89.1376 30.0333 89.2909 29.8267 89.5176 29.64C89.7576 29.44 90.0442 29.34 90.3776 29.34H93.4776ZM122.947 43.68C122.947 45.8267 122.607 47.8 121.927 49.6C121.247 51.3867 120.287 52.9267 119.047 54.22C117.807 55.5133 116.313 56.52 114.567 57.24C112.833 57.9467 110.913 58.3 108.807 58.3C106.7 58.3 104.78 57.9467 103.047 57.24C101.313 56.52 99.8266 55.5133 98.5866 54.22C97.3466 52.9267 96.3866 51.3867 95.7066 49.6C95.0266 47.8 94.6866 45.8267 94.6866 43.68C94.6866 41.5333 95.0266 39.5667 95.7066 37.78C96.3866 35.98 97.3466 34.4333 98.5866 33.14C99.8266 31.8333 101.313 30.82 103.047 30.1C104.78 29.38 106.7 29.02 108.807 29.02C110.913 29.02 112.833 29.38 114.567 30.1C116.313 30.82 117.807 31.8333 119.047 33.14C120.287 34.4333 121.247 35.98 121.927 37.78C122.607 39.5667 122.947 41.5333 122.947 43.68ZM118.967 43.68C118.967 41.92 118.727 40.34 118.247 38.94C117.767 37.54 117.087 36.36 116.207 35.4C115.327 34.4267 114.26 33.68 113.007 33.16C111.753 32.64 110.353 32.38 108.807 32.38C107.273 32.38 105.88 32.64 104.627 33.16C103.373 33.68 102.3 34.4267 101.407 35.4C100.527 36.36 99.8466 37.54 99.3666 38.94C98.8866 40.34 98.6466 41.92 98.6466 43.68C98.6466 45.44 98.8866 47.02 99.3666 48.42C99.8466 49.8067 100.527 50.9867 101.407 51.96C102.3 52.92 103.373 53.66 104.627 54.18C105.88 54.6867 107.273 54.94 108.807 54.94C110.353 54.94 111.753 54.6867 113.007 54.18C114.26 53.66 115.327 52.92 116.207 51.96C117.087 50.9867 117.767 49.8067 118.247 48.42C118.727 47.02 118.967 45.44 118.967 43.68Z" fill="#24ABDA"/>
<path d="M89 16.5C86.6252 16.5553 83 17.5 83 17.5L82.5 14.5C82.5 14.5 85.8439 13.9463 88 14C91.5993 14.0898 93.7221 14.5105 97 16C100.058 17.3898 104 21 104 21C104 21 107.948 17.4038 111 16C113.754 14.7334 115.48 14.261 118.5 14C121.23 13.764 125.5 14.5 125.5 14.5L125 17.5C125 17.5 120.146 16.3716 117 16.5C114.627 16.5969 113.242 16.7161 111 17.5C108.186 18.4836 104.5 21.5 104.5 21.5H103.5C103.5 21.5 99.1714 18.4803 96 17.5C93.3617 16.6845 91.7607 16.4358 89 16.5Z" fill="white"/>
<path d="M90 12.5C87.8761 12.18 84.5 12.5 84.5 12.5V10C84.5 10 87.9038 9.99274 90 10.5C92.044 10.9946 93.1337 11.5306 95 12.5C99.0601 14.6088 104 20.5 104 20.5C104 20.5 108.94 14.6088 113 12.5C114.866 11.5306 115.956 10.9946 118 10.5C120.096 9.99274 123.5 10 123.5 10V12.5C123.5 12.5 120.124 12.18 118 12.5C115.984 12.8038 114.879 13.2103 113 14C109.003 15.6795 104 20.5 104 20.5C104 20.5 98.997 15.6795 95 14C93.1206 13.2103 92.0158 12.8038 90 12.5Z" fill="#24ABDA"/>
<path d="M88 9L89 6.5C89 6.5 93.4785 8.94979 96 11C99.3924 13.7583 103.392 19.1677 103.937 19.9139C103.982 19.8636 104.239 19.5747 104.639 19.1401C105.98 17.3666 109.198 13.2787 112 11C114.521 8.94979 119 6.5 119 6.5L120 9C120 9 117.188 9.73649 115.5 10.5C113.183 11.5482 112.019 12.4444 110.007 13.995L110 14C108.107 15.4585 105.785 17.8962 104.639 19.1401C104.234 19.6755 104 20 104 20C104 20 103.979 19.9702 103.937 19.9139C103.933 19.9191 103.93 19.9217 103.93 19.9217C103.93 19.9217 100.581 16.0119 98 14C95.9919 12.435 94.8196 11.5493 92.5 10.5C90.8122 9.73649 88 9 88 9Z" fill="#24ABDA"/>
</g>
<defs>
<clipPath id="clip0">
<rect width="130" height="61" fill="white"/>
</clipPath>
</defs>
</svg>
