<svg width="43" height="31" viewBox="0 0 43 31" fill="none" xmlns="http://www.w3.org/2000/svg">
<g clip-path="url(#clip0)">
<path d="M1.22 26.8C1.22 26.4533 1.28 26.1267 1.4 25.82C1.53333 25.5133 1.70667 25.2467 1.92 25.02C2.14667 24.7933 2.41333 24.6133 2.72 24.48C3.02667 24.3467 3.35333 24.28 3.7 24.28C4.04667 24.28 4.37333 24.3467 4.68 24.48C4.98667 24.6133 5.25333 24.7933 5.48 25.02C5.70667 25.2467 5.88667 25.5133 6.02 25.82C6.15333 26.1267 6.22 26.4533 6.22 26.8C6.22 27.16 6.15333 27.4933 6.02 27.8C5.88667 28.0933 5.70667 28.3533 5.48 28.58C5.25333 28.8067 4.98667 28.98 4.68 29.1C4.37333 29.2333 4.04667 29.3 3.7 29.3C3.35333 29.3 3.02667 29.2333 2.72 29.1C2.41333 28.98 2.14667 28.8067 1.92 28.58C1.70667 28.3533 1.53333 28.0933 1.4 27.8C1.28 27.4933 1.22 27.16 1.22 26.8ZM33.0619 29V11.78L30.8219 11.52C30.5419 11.4533 30.3085 11.3533 30.1219 11.22C29.9485 11.0733 29.8619 10.8667 29.8619 10.6V9.14H33.0619V7.18C33.0619 6.02 33.2219 4.99333 33.5419 4.1C33.8752 3.19333 34.3419 2.43333 34.9419 1.82C35.5552 1.19333 36.2885 0.719999 37.1419 0.399999C37.9952 0.079998 38.9552 -0.0800023 40.0219 -0.0800023C40.9285 -0.0800023 41.7619 0.0533317 42.5219 0.32L42.4419 2.1C42.4152 2.42 42.2352 2.59333 41.9019 2.62C41.5819 2.64667 41.1485 2.66 40.6019 2.66C39.9885 2.66 39.4285 2.74 38.9219 2.9C38.4285 3.06 38.0019 3.32 37.6419 3.68C37.2819 4.04 37.0019 4.51333 36.8019 5.1C36.6152 5.68667 36.5219 6.41333 36.5219 7.28V9.14H42.3619V11.72H36.6419V29H33.0619Z" fill="#81D742"/>
<path d="M5.4593 21.3333C3.83006 21.4015 1.34302 22.5667 1.34302 22.5667L1 18.8667C1 18.8667 3.29409 18.1837 4.77326 18.25C7.24257 18.3607 8.69887 18.8796 10.9477 20.7167C13.0459 22.4307 15.75 26.8833 15.75 26.8833C15.75 26.8833 18.4585 22.448 20.5523 20.7167C22.4417 19.1545 23.6258 18.5719 25.6977 18.25C27.5709 17.959 30.5 18.8667 30.5 18.8667L30.157 22.5667C30.157 22.5667 26.8268 21.175 24.6686 21.3333C23.0403 21.4528 22.0907 21.5999 20.5523 22.5667C18.6221 23.7797 16.093 27.5 16.093 27.5H15.407C15.407 27.5 12.4374 23.7757 10.2616 22.5667C8.45166 21.5609 7.35326 21.2542 5.4593 21.3333Z" fill="white"/>
<path d="M6.14533 16.4C4.68823 16.0053 2.37207 16.4 2.37207 16.4V13.3167C2.37207 13.3167 4.70721 13.3077 6.14533 13.9333C7.54763 14.5434 8.29518 15.2045 9.57556 16.4C12.361 19.0009 15.75 26.2667 15.75 26.2667C15.75 26.2667 19.139 19.0009 21.9244 16.4C23.2048 15.2045 23.9523 14.5434 25.3546 13.9333C26.7927 13.3077 29.1279 13.3167 29.1279 13.3167V16.4C29.1279 16.4 26.8117 16.0053 25.3546 16.4C23.9717 16.7746 23.2138 17.276 21.9244 18.25C19.1823 20.3214 15.75 26.2667 15.75 26.2667C15.75 26.2667 12.3177 20.3214 9.57556 18.25C8.28619 17.276 7.52829 16.7746 6.14533 16.4Z" fill="#24ABDA"/>
<path d="M4.77323 12.0833L5.45928 9C5.45928 9 8.53175 12.0214 10.2616 14.55C12.5889 17.952 15.3331 24.6235 15.707 25.5438C15.7376 25.4818 15.9137 25.1255 16.1884 24.5894C17.1087 22.4021 19.3157 17.3604 21.2383 14.55C22.9682 12.0214 26.0407 9 26.0407 9L26.7267 12.0833C26.7267 12.0833 24.7974 12.9917 23.6395 13.9333C22.0499 15.2261 21.2517 16.3315 19.8707 18.2438L19.8663 18.25C18.5673 20.0488 16.9744 23.0554 16.1884 24.5894C15.9105 25.2498 15.75 25.65 15.75 25.65C15.75 25.65 15.7353 25.6133 15.707 25.5438C15.7038 25.5502 15.7022 25.5535 15.7022 25.5535C15.7022 25.5535 13.4047 20.7313 11.6337 18.25C10.2561 16.3198 9.45179 15.2275 7.86044 13.9333C6.70256 12.9917 4.77323 12.0833 4.77323 12.0833Z" fill="#24ABDA"/>
</g>
<defs>
<clipPath id="clip0">
<rect width="43" height="31" fill="white"/>
</clipPath>
</defs>
</svg>
